<svg width="21" height="20" viewBox="0 0 21 20" fill="none" xmlns="http://www.w3.org/2000/svg">
<path d="M15.7562 4.9916C14.7955 4.06723 14.7955 2.58824 15.7562 1.66387L14.0269 0L0 13.3109L1.72934 14.9748C2.69008 14.0504 4.22727 14.0504 5.18802 14.9748C6.14876 15.8992 6.14876 17.3782 5.18802 18.3025L6.91736 19.9664L20.9442 6.65546L19.2149 4.9916C18.2541 5.91597 16.7169 5.91597 15.7562 4.9916ZM15.8523 9.89076C15.468 10.2605 14.8915 10.2605 14.5072 9.89076C14.1229 9.52101 14.1229 8.96639 14.5072 8.59664C14.8915 8.22689 15.468 8.22689 15.8523 8.59664C16.2366 8.96639 16.2366 9.52101 15.8523 9.89076ZM13.8347 7.94958C13.4504 8.31933 12.874 8.31933 12.4897 7.94958C12.1054 7.57983 12.1054 7.02521 12.4897 6.65546C12.874 6.28571 13.4504 6.28571 13.8347 6.65546C14.219 7.02521 14.219 7.57983 13.8347 7.94958ZM11.8171 6.0084C11.4329 6.37815 10.8564 6.37815 10.4721 6.0084C10.0878 5.63866 10.0878 5.08403 10.4721 4.71429C10.8564 4.34454 11.4329 4.34454 11.8171 4.71429C12.2014 5.08403 12.2014 5.73109 11.8171 6.0084Z" fill="white"/>
</svg>
